<svg width="163" height="30" viewBox="0 0 163 30" fill="none" xmlns="http://www.w3.org/2000/svg">
<g clip-path="url(#clip0_1_11)">
<path d="M49.8361 18.8541C49.7546 18.8541 49.6863 18.8232 49.62 18.7589C49.5536 18.6936 49.5233 18.6227 49.5233 18.5359V18.0572C49.5233 17.9639 49.5536 17.8896 49.62 17.8248C49.6863 17.7599 49.7551 17.7291 49.8361 17.7291H50.2075V13.1274H48.0263V17.7291H48.3284C48.421 17.7291 48.4914 17.7584 48.5506 17.8213C48.6114 17.8861 48.6412 17.9634 48.6412 18.0572V18.5359C48.6412 18.6237 48.6119 18.6981 48.5506 18.7619C48.4914 18.8247 48.421 18.8541 48.3284 18.8541H45.9776C45.8982 18.8541 45.8273 18.8232 45.762 18.7584C45.6968 18.6946 45.6654 18.6212 45.6654 18.5359V18.0572C45.6654 17.9639 45.6957 17.8901 45.7625 17.8248C45.8273 17.7604 45.8982 17.7291 45.9776 17.7291H46.4291V13.1274H46.0176C45.9361 13.1274 45.8678 13.0964 45.802 13.0316C45.7357 12.9663 45.7048 12.896 45.7048 12.8092V12.3299C45.7048 12.2367 45.7357 12.1629 45.802 12.0975C45.8678 12.0327 45.9361 12.0022 46.0176 12.0022H52.1464C52.2395 12.0022 52.3099 12.0312 52.369 12.0941C52.4298 12.1589 52.4596 12.2362 52.4596 12.3299V12.8092C52.4596 12.897 52.4298 12.9703 52.3685 13.0356C52.3099 13.0979 52.2395 13.1274 52.1464 13.1274H51.8048V17.7291H52.1767C52.2688 17.7291 52.3397 17.7584 52.3984 17.8213C52.4596 17.8861 52.489 17.9634 52.489 18.0572V18.5359C52.489 18.6237 52.4596 18.6981 52.3984 18.7619C52.3397 18.8247 52.2688 18.8541 52.1767 18.8541H49.8361ZM55.9309 15.1981H56.8378C57.0018 15.1981 57.1435 15.1656 57.2599 15.1023C57.3778 15.0379 57.4709 14.9497 57.5368 14.8405C57.5975 14.7387 57.6415 14.6255 57.6678 14.5043C57.6926 14.3881 57.7058 14.2644 57.7058 14.1382C57.7058 14.0116 57.6926 13.8894 57.6673 13.7752C57.6395 13.6501 57.5854 13.5373 57.5054 13.4391C57.4249 13.3388 57.3131 13.2606 57.1744 13.2057C57.0413 13.1533 56.8718 13.1274 56.6693 13.1274H55.9309V15.1981ZM53.9127 18.8541C53.8312 18.8541 53.7629 18.8232 53.6965 18.7589C53.6307 18.6936 53.5999 18.6227 53.5999 18.5359V18.0572C53.5999 17.9639 53.6307 17.8896 53.6965 17.8248C53.7629 17.7599 53.8312 17.7291 53.9127 17.7291H54.3438V13.1274H53.9127C53.8312 13.1274 53.7629 13.0964 53.6965 13.0316C53.6307 12.9663 53.5999 12.896 53.5999 12.8092V12.3299C53.5999 12.2367 53.6307 12.1629 53.6965 12.0975C53.7629 12.0327 53.8312 12.0022 53.9127 12.0022H56.8581C57.4168 12.0022 57.8647 12.0736 58.1881 12.2147C58.5095 12.3554 58.7544 12.5299 58.9164 12.7349C59.0808 12.9414 59.1882 13.1657 59.2362 13.4032C59.2868 13.6525 59.3127 13.8904 59.3127 14.1089C59.3127 14.8056 59.1041 15.3387 58.6927 15.6927C58.2752 16.0524 57.6911 16.2349 56.9573 16.2349H55.9309V17.7291H56.4709C56.5635 17.7291 56.6344 17.7584 56.6936 17.8213C56.7538 17.8861 56.7837 17.9634 56.7837 18.0572V18.5359C56.7837 18.6237 56.7543 18.6981 56.6931 18.7624C56.6344 18.8247 56.5635 18.8541 56.4709 18.8541H53.9127ZM73.7584 14.5048C73.5599 14.5048 73.3779 14.5547 73.2162 14.6529C73.0659 14.7452 72.9181 14.8729 72.7773 15.032L72.7418 15.0719V15.9042L72.7804 15.9446C72.8946 16.0648 73.0481 16.1611 73.2371 16.2299C73.4242 16.2987 73.5783 16.3316 73.7083 16.3316C73.7597 16.3316 73.8333 16.3251 73.9278 16.3107C74.0331 16.2947 74.1352 16.2573 74.2335 16.1995C74.3324 16.1411 74.4212 16.0588 74.4954 15.9546C74.5741 15.8439 74.6178 15.6952 74.6255 15.5122L74.6261 15.4085C74.6261 15.2305 74.5957 15.0804 74.5367 14.9607C74.4783 14.8415 74.4028 14.7457 74.3121 14.6764C74.2233 14.6081 74.125 14.5622 74.0185 14.5377C73.9208 14.5158 73.8358 14.5048 73.7584 14.5048ZM70.2771 14.5243C70.2181 14.5243 70.142 14.5312 70.0469 14.5457C69.9422 14.5617 69.8382 14.6016 69.7386 14.6644C69.6384 14.7272 69.5503 14.8171 69.4767 14.9327C69.3993 15.0524 69.36 15.2125 69.36 15.4085V15.4868C69.36 15.6594 69.3911 15.8045 69.4507 15.9182C69.5103 16.0319 69.5864 16.1222 69.6771 16.1875C69.7646 16.2504 69.8604 16.2947 69.9612 16.3182C70.0545 16.3401 70.1407 16.3511 70.2175 16.3511C70.4154 16.3511 70.5987 16.3017 70.7629 16.2039C70.917 16.1122 71.0667 15.9845 71.2082 15.8244L71.2437 15.7846V14.9497L71.2025 14.9083C71.0997 14.8071 70.9684 14.7173 70.8118 14.6415C70.6488 14.5637 70.4693 14.5243 70.2771 14.5243ZM70.9817 18.8541C70.8999 18.8541 70.8314 18.8232 70.7648 18.7584C70.7001 18.6946 70.6691 18.6212 70.6691 18.5359V18.0572C70.6691 17.9639 70.6989 17.8901 70.7655 17.8248C70.8314 17.7599 70.9006 17.7291 70.9817 17.7291H71.2437V16.8677L70.7477 17.1421C70.6475 17.1999 70.5403 17.2517 70.4236 17.3021C70.3082 17.351 70.1775 17.3929 70.0355 17.4263C69.8953 17.4592 69.7323 17.4762 69.5528 17.4762C69.3689 17.4762 69.1602 17.4482 68.9331 17.3919C68.7169 17.3391 68.5126 17.2393 68.3281 17.0962C68.1441 16.9531 67.9875 16.7531 67.8625 16.4997C67.737 16.2469 67.6735 15.9127 67.6735 15.5062V15.3307C67.6799 14.9222 67.7566 14.5886 67.9019 14.3412C68.049 14.0899 68.2285 13.8919 68.4346 13.7512C68.6433 13.6086 68.8634 13.5109 69.0892 13.46C69.3213 13.4072 69.5268 13.3802 69.7018 13.3802C69.8059 13.3802 69.9689 13.4007 70.1858 13.4411C70.3963 13.481 70.6798 13.6017 71.028 13.8011L71.2437 13.9248V13.1274H71.0306C70.9507 13.1274 70.8803 13.0959 70.8149 13.0316C70.749 12.9663 70.7185 12.896 70.7185 12.8092V12.3299C70.7185 12.2367 70.749 12.1629 70.8149 12.0975C70.8803 12.0332 70.9507 12.0022 71.0306 12.0022H73.0043C73.0969 12.0022 73.168 12.0312 73.2263 12.0941C73.2872 12.1589 73.317 12.2357 73.317 12.3299V12.8092C73.317 12.897 73.2878 12.9707 73.2263 13.0351C73.168 13.0979 73.0969 13.1274 73.0043 13.1274H72.7418V13.9827L72.9536 13.8719C73.0411 13.8256 73.1356 13.7722 73.2365 13.7119C73.331 13.657 73.4369 13.6046 73.5561 13.5552C73.676 13.5049 73.8073 13.463 73.9455 13.4301C74.0819 13.3972 74.2424 13.3802 74.4231 13.3802C74.6147 13.3802 74.8265 13.4101 75.0504 13.4685C75.2673 13.5244 75.4715 13.6281 75.6567 13.7742C75.8407 13.9193 75.9967 14.1263 76.1223 14.3891C76.2485 14.6519 76.3125 14.9951 76.3125 15.4085V15.5257C76.3125 15.9356 76.2415 16.2693 76.102 16.5172C75.9618 16.7675 75.7874 16.9655 75.5851 17.1061C75.3802 17.2473 75.1582 17.3455 74.9274 17.3964C74.687 17.4497 74.4739 17.4762 74.2938 17.4762C74.2424 17.4762 74.1751 17.4742 74.0908 17.4712C74.0166 17.4687 73.9253 17.4532 73.8187 17.4268C73.7077 17.3989 73.5821 17.3565 73.4401 17.3006C73.2986 17.2448 73.1375 17.1625 72.9599 17.0567L72.7418 16.9256V17.7291H72.9549C73.0475 17.7291 73.1185 17.7584 73.1775 17.8213C73.2377 17.8861 73.2675 17.9634 73.2675 18.0572V18.5359C73.2675 18.6237 73.2384 18.6981 73.1769 18.7624C73.1185 18.8247 73.0475 18.8541 72.9549 18.8541H70.9817ZM81.8514 18.8541C81.7702 18.8541 81.7017 18.8232 81.6351 18.7589C81.5698 18.6936 81.5393 18.6227 81.5393 18.5359V18.0572C81.5393 17.9639 81.5698 17.8896 81.6357 17.8248C81.7017 17.7599 81.7702 17.7291 81.8514 17.7291H82.3125V14.8874L79.5846 17.7291H80.2448C80.326 17.7291 80.3945 17.7599 80.4605 17.8248C80.5271 17.8896 80.5575 17.9639 80.5575 18.0572V18.5359C80.5575 18.6227 80.5271 18.6936 80.4605 18.7584C80.3945 18.8232 80.326 18.8541 80.2448 18.8541H77.7852C77.7047 18.8541 77.6349 18.8232 77.5696 18.7589C77.5043 18.6946 77.4726 18.6212 77.4726 18.5359V18.0572C77.4726 17.9639 77.503 17.8901 77.5696 17.8248C77.6349 17.7604 77.7047 17.7291 77.7852 17.7291H78.2463V13.1274H77.7954C77.7148 13.1274 77.6451 13.0959 77.5791 13.0311C77.5144 12.9673 77.4821 12.8945 77.4821 12.8092V12.3299C77.4821 12.2367 77.5132 12.1634 77.5798 12.0975C77.6451 12.0332 77.7148 12.0022 77.7954 12.0022H80.1161C80.196 12.0022 80.2664 12.0332 80.3324 12.098C80.3977 12.1629 80.4288 12.2367 80.4288 12.3299V12.8092C80.4288 12.896 80.3977 12.9663 80.3324 13.0311C80.2664 13.0959 80.196 13.1274 80.1161 13.1274H79.8434V15.9307L82.5313 13.1274H82.0695C81.9884 13.1274 81.9205 13.0964 81.8539 13.0316C81.7879 12.9663 81.7575 12.896 81.7575 12.8092V12.3299C81.7575 12.2367 81.7879 12.1629 81.8539 12.0975C81.9205 12.0327 81.9884 12.0022 82.0695 12.0022H84.2913C84.3712 12.0022 84.4416 12.0332 84.5076 12.098C84.5729 12.1629 84.604 12.2367 84.604 12.3299V12.8092C84.604 12.896 84.5729 12.9663 84.5076 13.0311C84.4416 13.0959 84.3712 13.1274 84.2913 13.1274H83.9095V17.7291H84.2818C84.3611 17.7291 84.4321 17.7604 84.4974 17.8253C84.5627 17.8896 84.5938 17.9639 84.5938 18.0572V18.5359C84.5938 18.6232 84.5627 18.6941 84.4974 18.7584C84.4321 18.8232 84.3611 18.8541 84.2818 18.8541H81.8514ZM97.8152 13.2685V13.6889L97.233 15.6863H98.8541L98.0962 13.1274H97.845L97.8152 13.2685ZM98.9106 18.8541C98.83 18.8541 98.7609 18.8232 98.6949 18.7589C98.6296 18.6946 98.5979 18.6212 98.5979 18.5359V18.0572C98.5979 17.9639 98.6289 17.8901 98.6949 17.8248C98.7609 17.7599 98.83 17.7291 98.9106 17.7291H99.5651L99.1928 16.6164H96.9672L96.6482 17.7291H97.1949C97.2875 17.7291 97.3579 17.7584 97.4176 17.8213C97.4778 17.8856 97.5076 17.9629 97.5076 18.0572V18.5359C97.5076 18.6237 97.4778 18.6981 97.4176 18.7619C97.3579 18.8247 97.2875 18.8541 97.1949 18.8541H94.8451C94.7645 18.8541 94.6941 18.8232 94.6288 18.7589C94.5622 18.6936 94.5318 18.6227 94.5318 18.5359V18.0572C94.5318 17.9639 94.5622 17.8896 94.6288 17.8248C94.6941 17.7604 94.7645 17.7291 94.8451 17.7291H95.206L96.7592 13.1274H96.4313C96.3501 13.1274 96.2816 13.0964 96.215 13.0311C96.1497 12.9663 96.1186 12.896 96.1186 12.8092V12.3299C96.1186 12.2367 96.1497 12.1629 96.2157 12.0975C96.2816 12.0327 96.3501 12.0022 96.4313 12.0022H99.8632C99.9552 12.0022 100.026 12.0312 100.085 12.0941C100.146 12.1589 100.176 12.2357 100.176 12.3299V12.8092C100.176 12.897 100.146 12.9707 100.085 13.0351C100.026 13.0979 99.9552 13.1274 99.8632 13.1274H99.5353L101.089 17.7291H101.51C101.602 17.7291 101.673 17.7584 101.731 17.8213C101.793 17.8861 101.822 17.9634 101.822 18.0572V18.5359C101.822 18.6237 101.793 18.6981 101.731 18.7619C101.673 18.8247 101.602 18.8541 101.51 18.8541H98.9106ZM107.847 18.8541C107.767 18.8541 107.696 18.8232 107.631 18.7589C107.565 18.6946 107.534 18.6212 107.534 18.5359V18.0572C107.534 17.9639 107.565 17.8901 107.631 17.8248C107.696 17.7604 107.767 17.7291 107.847 17.7291H108.268V15.8534H105.601V17.7291H106.042C106.135 17.7291 106.205 17.7584 106.264 17.8208C106.325 17.8861 106.355 17.9634 106.355 18.0572V18.5359C106.355 18.6237 106.325 18.6981 106.264 18.7619C106.205 18.8247 106.135 18.8541 106.042 18.8541H103.553C103.473 18.8541 103.402 18.8227 103.336 18.7584C103.271 18.6946 103.239 18.6212 103.239 18.5359V18.0572C103.239 17.9639 103.271 17.8901 103.337 17.8248C103.402 17.7609 103.473 17.7291 103.553 17.7291H104.003V13.1274H103.602C103.521 13.1274 103.452 13.0964 103.386 13.0316C103.32 12.9668 103.289 12.8965 103.289 12.8092V12.3299C103.289 12.2362 103.321 12.1629 103.386 12.0975C103.452 12.0327 103.521 12.0022 103.602 12.0022H106.051C106.145 12.0022 106.215 12.0312 106.274 12.0941C106.335 12.1589 106.364 12.2357 106.364 12.3299V12.8092C106.364 12.897 106.335 12.9707 106.274 13.0356C106.215 13.0979 106.145 13.1274 106.051 13.1274H105.601V14.8166H108.268V13.1274H107.857C107.777 13.1274 107.706 13.0959 107.641 13.0316C107.576 12.9673 107.544 12.8945 107.544 12.8092V12.3299C107.544 12.2367 107.575 12.1634 107.642 12.0975C107.706 12.0332 107.777 12.0022 107.857 12.0022H110.257C110.349 12.0022 110.42 12.0312 110.479 12.0941C110.54 12.1589 110.57 12.2357 110.57 12.3299V12.8092C110.57 12.897 110.54 12.9707 110.479 13.0351C110.42 13.0979 110.349 13.1274 110.257 13.1274H109.866V17.7291H110.247C110.34 17.7291 110.41 17.7584 110.47 17.8213C110.53 17.8861 110.56 17.9634 110.56 18.0572V18.5359C110.56 18.6237 110.53 18.6981 110.47 18.7619C110.41 18.8247 110.34 18.8541 110.247 18.8541H107.847ZM87.0293 18.8836C86.9075 18.8836 86.7769 18.8691 86.6412 18.8427C86.5016 18.8142 86.3646 18.7784 86.2314 18.7344C86.1585 18.71 86.097 18.6671 86.045 18.6038C85.9999 18.5489 85.9822 18.4646 85.9917 18.3524L86.071 17.0982C86.0716 17.0094 86.1027 16.9421 86.1686 16.8772C86.234 16.8114 86.3063 16.7815 86.3938 16.7815H86.8207C86.8923 16.7815 86.9849 16.7919 87.023 16.8423C87.0737 16.9086 87.12 17.0004 87.1612 17.1171L87.3648 17.6991L87.5253 17.4612C87.7213 17.171 87.8456 16.8503 87.8951 16.5087C87.942 16.1825 87.9661 15.8349 87.9661 15.4773V13.1274H87.4853C87.4035 13.1274 87.3356 13.0964 87.2691 13.0316C87.2031 12.9663 87.1727 12.896 87.1727 12.8092V12.3299C87.1727 12.2367 87.2031 12.1629 87.2697 12.0975C87.3357 12.0327 87.4035 12.0022 87.4853 12.0022H92.7908C92.884 12.0022 92.9544 12.0312 93.0134 12.0941C93.0743 12.1589 93.1041 12.2362 93.1041 12.3299V12.8092C93.1041 12.897 93.0743 12.9703 93.0134 13.0356C92.9544 13.0979 92.884 13.1274 92.7908 13.1274H92.4495V17.7291H92.7812C92.8739 17.7291 92.9442 17.7584 93.0032 17.8208C93.0641 17.8861 93.0939 17.9634 93.0939 18.0572V18.5359C93.0939 18.6237 93.0641 18.6981 93.0032 18.7619C92.9442 18.8247 92.8739 18.8541 92.7812 18.8541H90.3718C90.29 18.8541 90.2215 18.8232 90.1549 18.7589C90.0902 18.6946 90.0585 18.6212 90.0585 18.5359V18.0572C90.0585 17.9639 90.0889 17.8901 90.1555 17.8248C90.2215 17.7599 90.2906 17.7291 90.3718 17.7291H90.8519V13.1274H89.4642V14.7926C89.4642 15.0454 89.4591 15.3092 89.4496 15.5846C89.4394 15.8534 89.4153 16.1262 89.376 16.395C89.338 16.6593 89.2752 16.9206 89.1889 17.1715C89.1039 17.4183 88.9853 17.6492 88.8363 17.8582C88.5978 18.1919 88.3213 18.4492 88.0137 18.6232C87.7105 18.7958 87.3788 18.8836 87.0293 18.8836ZM63.4831 13.0875C62.9611 13.0875 62.5648 13.267 62.3056 13.6206C62.0571 13.9602 61.9311 14.4589 61.9311 15.1053V15.7506C61.9311 16.397 62.0571 16.8962 62.3056 17.2358C62.5648 17.5894 62.9611 17.7684 63.4831 17.7684C64.0057 17.7684 64.4021 17.5894 64.6603 17.2358C64.9089 16.8967 65.0351 16.397 65.0351 15.7506V15.1053C65.0351 14.4654 64.9089 13.9677 64.6609 13.6261C64.4021 13.269 64.0064 13.0875 63.4831 13.0875ZM63.414 18.9813C63.0365 18.9743 62.6594 18.9294 62.2956 18.8477C61.9423 18.7684 61.6092 18.6008 61.3041 18.3489C61.0647 18.1569 60.8729 17.95 60.7332 17.7326C60.592 17.5136 60.4847 17.2787 60.4124 17.0358C60.3395 16.7874 60.2914 16.5276 60.2692 16.2618C60.2464 15.9905 60.2347 15.7097 60.2347 15.4284C60.2347 15.1532 60.2464 14.8754 60.2692 14.6046C60.2914 14.3382 60.3395 14.0784 60.4124 13.8306C60.4847 13.5872 60.5926 13.3508 60.7337 13.1284C60.8734 12.9084 61.0647 12.6995 61.3026 12.508C61.6138 12.2566 61.96 12.0866 62.3299 12.0037C62.7126 11.9185 63.1002 11.8751 63.4831 11.8751C63.8662 11.8751 64.2543 11.9185 64.6368 12.0037C65.0066 12.0866 65.3522 12.2566 65.6636 12.5075C65.9021 12.6995 66.093 12.9084 66.2332 13.1284C66.374 13.3518 66.4824 13.5877 66.5535 13.8306C66.627 14.0784 66.6752 14.3382 66.6968 14.6046C66.7203 14.8784 66.7317 15.1562 66.7317 15.4284C66.7317 15.7062 66.7203 15.9855 66.6968 16.2568C66.6752 16.5191 66.627 16.778 66.5535 17.0259C66.4824 17.2682 66.374 17.5046 66.2325 17.7281C66.093 17.949 65.9015 18.1579 65.6636 18.3479C65.3567 18.5943 65.0224 18.7629 64.6691 18.8482C64.3044 18.9364 63.929 18.9813 63.5529 18.9813H63.414ZM115.256 18.9813C114.122 18.9813 113.291 18.6746 112.783 18.0697C112.268 17.4567 112.008 16.568 112.008 15.4284C112.008 15.1552 112.019 14.8779 112.042 14.6046C112.063 14.3402 112.112 14.0799 112.185 13.8306C112.257 13.5872 112.365 13.3513 112.506 13.1284C112.646 12.9084 112.837 12.6995 113.076 12.508C113.387 12.2566 113.733 12.0866 114.102 12.0037C114.485 11.9185 114.873 11.8751 115.256 11.8751C115.531 11.8751 115.84 11.903 116.175 11.9564C116.508 12.0102 116.82 12.0975 117.104 12.2157C117.255 12.2786 117.377 12.3718 117.478 12.5C117.573 12.6197 117.613 12.7728 117.602 12.9668L117.543 13.8455C117.533 13.9383 117.498 14.0156 117.435 14.0774C117.376 14.1358 117.304 14.1632 117.21 14.1632H116.575C116.486 14.1632 116.416 14.1353 116.352 14.0754C116.288 14.0146 116.251 13.9378 116.242 13.8406L116.17 13.2256L116.064 13.2072C115.956 13.1887 115.85 13.1653 115.745 13.1369C115.62 13.1039 115.461 13.0875 115.256 13.0875C114.733 13.0875 114.337 13.267 114.078 13.6206C113.83 13.9602 113.704 14.4589 113.704 15.1053V15.7506C113.704 15.9791 113.725 16.2124 113.766 16.4444C113.808 16.6847 113.888 16.9052 114.002 17.0977C114.119 17.2962 114.28 17.4587 114.481 17.5809C114.685 17.7056 114.945 17.7684 115.256 17.7684C115.415 17.7684 115.57 17.7584 115.722 17.7375C115.88 17.7166 116.033 17.6737 116.178 17.6099L116.262 17.5724V16.777C116.262 16.6972 116.293 16.6294 116.359 16.5641C116.424 16.4987 116.496 16.4688 116.585 16.4688H117.338C117.433 16.4688 117.508 16.4992 117.575 16.5641C117.641 16.6294 117.671 16.6972 117.671 16.777V17.7739C117.671 17.9644 117.638 18.1061 117.574 18.1834C117.498 18.2761 117.408 18.3594 117.305 18.4302C117.012 18.6202 116.695 18.7619 116.364 18.8492C116.03 18.9364 115.657 18.9813 115.256 18.9813Z" fill="#2D3448"/>
<path fill-rule="evenodd" clip-rule="evenodd" d="M140.712 18.9813C140.583 18.9813 140.44 18.9743 140.283 18.9624C140.129 18.9494 139.988 18.9274 139.865 18.8971C139.768 18.8721 139.694 18.8302 139.64 18.7699C139.592 18.7165 139.572 18.6606 139.576 18.5933L139.646 17.1939C139.646 17.0957 139.675 17.0264 139.739 16.9685C139.805 16.9081 139.883 16.8787 139.978 16.8787H140.266C140.351 16.8787 140.417 16.9067 140.473 16.9655C140.54 17.0368 140.586 17.1211 140.613 17.2229L140.881 18.2482L141.456 17.0393L139.543 13.1174H139.135C139.054 13.1174 138.986 13.0865 138.92 13.0221C138.853 12.9568 138.823 12.8855 138.823 12.7987V12.3199C138.823 12.2282 138.854 12.1519 138.919 12.0881C138.986 12.0232 139.054 11.9923 139.135 11.9923H141.535C141.628 11.9923 141.698 12.0217 141.758 12.0846C141.818 12.1489 141.848 12.2257 141.848 12.3199V12.7987C141.848 12.888 141.819 12.9598 141.757 13.0256C141.698 13.088 141.628 13.1174 141.535 13.1174H141.168L142.274 15.6344L143.477 13.1174H142.963C142.883 13.1174 142.813 13.086 142.747 13.0216C142.682 12.9568 142.651 12.886 142.651 12.7987V12.3199C142.651 12.2277 142.683 12.1519 142.747 12.0881C142.813 12.0237 142.883 11.9923 142.963 11.9923H145.284C145.377 11.9923 145.447 12.0217 145.506 12.0846C145.568 12.1489 145.597 12.2262 145.597 12.3199V12.7987C145.597 12.8875 145.568 12.9598 145.506 13.0256C145.447 13.088 145.377 13.1174 145.284 13.1174H144.978L142.657 17.6512C142.512 17.9246 142.362 18.1524 142.21 18.3265C142.061 18.4971 141.904 18.6322 141.744 18.7275C141.583 18.8232 141.417 18.8901 141.252 18.9249C141.081 18.9624 140.9 18.9813 140.712 18.9813ZM123.962 18.7484C124.029 18.8137 124.098 18.8442 124.179 18.8442H126.777C126.858 18.8442 126.928 18.8137 126.993 18.7489C127.059 18.6831 127.09 18.6122 127.09 18.5265V18.0472C127.09 17.9549 127.058 17.8792 126.993 17.8153C126.928 17.75 126.858 17.7191 126.777 17.7191H126.197V13.1174H127.509L127.614 13.9273C127.624 14.0206 127.661 14.1004 127.725 14.1692C127.784 14.2311 127.848 14.2604 127.928 14.2604H128.651C128.733 14.2604 128.802 14.2301 128.868 14.1652C128.934 14.1004 128.964 14.0261 128.964 13.9328V12.3105C128.964 12.2232 128.934 12.1524 128.868 12.0881C128.802 12.0237 128.731 11.9923 128.651 11.9923H124.169C124.089 11.9923 124.018 12.0237 123.953 12.0876C123.888 12.1519 123.857 12.2282 123.857 12.3199V12.7987C123.857 12.8855 123.887 12.9563 123.953 13.0216C124.018 13.086 124.089 13.1174 124.169 13.1174H124.6V17.7191H124.179C124.098 17.7191 124.029 17.75 123.962 17.8153C123.898 17.8792 123.866 17.9549 123.866 18.0472V18.5265C123.866 18.6127 123.897 18.6836 123.962 18.7484ZM131.302 18.7484C131.368 18.8137 131.437 18.8442 131.518 18.8442H134.077C134.169 18.8442 134.24 18.8152 134.299 18.7529C134.361 18.6871 134.389 18.6147 134.389 18.5265V18.0472C134.389 17.9525 134.36 17.8757 134.299 17.8113C134.24 17.7485 134.169 17.7191 134.077 17.7191H133.537V16.2249H134.563C135.297 16.2249 135.881 16.0429 136.298 15.6828C136.71 15.3287 136.919 14.7956 136.919 14.0989C136.919 13.8804 136.893 13.6431 136.842 13.3937C136.794 13.1558 136.686 12.9309 136.523 12.7249C136.359 12.5194 136.114 12.3444 135.794 12.2052C135.47 12.0641 135.023 11.9923 134.464 11.9923H131.518C131.437 11.9923 131.368 12.0232 131.303 12.0876C131.237 12.1519 131.206 12.2282 131.206 12.3199V12.7987C131.206 12.8855 131.236 12.9568 131.302 13.0216C131.368 13.0865 131.437 13.1174 131.518 13.1174H131.949V17.7191H131.518C131.437 17.7191 131.368 17.75 131.303 17.8148C131.237 17.8792 131.206 17.9549 131.206 18.0472V18.5265C131.206 18.6127 131.236 18.6836 131.302 18.7484ZM151.562 18.8442C151.482 18.8442 151.412 18.8137 151.346 18.7489C151.28 18.6836 151.25 18.6127 151.25 18.5265V18.0472C151.25 17.9549 151.282 17.8792 151.346 17.8153C151.412 17.75 151.482 17.7191 151.562 17.7191H151.934V13.1174H149.753V17.7191H150.055C150.147 17.7191 150.218 17.7485 150.277 17.8113C150.338 17.8757 150.368 17.9529 150.368 18.0472V18.5265C150.368 18.6147 150.339 18.6866 150.277 18.7529C150.218 18.8152 150.147 18.8442 150.055 18.8442H147.705C147.623 18.8442 147.554 18.8137 147.489 18.7484C147.422 18.6836 147.392 18.6127 147.392 18.5265V18.0472C147.392 17.9549 147.424 17.8792 147.489 17.8153C147.554 17.75 147.623 17.7191 147.705 17.7191H148.156V13.1174H147.745C147.663 13.1174 147.594 13.0865 147.528 13.0216C147.462 12.9563 147.432 12.8855 147.432 12.7987V12.3199C147.432 12.2282 147.463 12.1519 147.528 12.0876C147.594 12.0232 147.663 11.9923 147.745 11.9923H153.873C153.966 11.9923 154.037 12.0217 154.095 12.0846C154.157 12.1489 154.186 12.2262 154.186 12.3199V12.7987C154.186 12.8875 154.157 12.9598 154.095 13.0256C154.037 13.088 153.966 13.1174 153.873 13.1174H153.531V17.7191H153.903C153.996 17.7191 154.067 17.7485 154.125 17.8113C154.187 17.8757 154.216 17.9529 154.216 18.0472V18.5265C154.216 18.6147 154.187 18.6866 154.125 18.7529C154.067 18.8152 153.996 18.8442 153.903 18.8442H151.562ZM160.123 18.7484C160.188 18.8132 160.259 18.8442 160.339 18.8442H162.68C162.772 18.8442 162.843 18.8152 162.902 18.7529C162.964 18.6866 162.992 18.6147 162.992 18.5265V18.0472C162.992 17.9529 162.963 17.8757 162.902 17.8108C162.843 17.7485 162.772 17.7191 162.68 17.7191H162.308V13.1174H162.651C162.742 13.1174 162.814 13.088 162.872 13.0256C162.933 12.9598 162.963 12.888 162.963 12.7987V12.3199C162.963 12.2257 162.933 12.1489 162.873 12.0846C162.814 12.0217 162.742 11.9923 162.651 11.9923H156.521C156.441 11.9923 156.37 12.0237 156.305 12.0881C156.24 12.1519 156.209 12.2282 156.209 12.3199V12.7987C156.209 12.8855 156.239 12.9568 156.305 13.0221C156.37 13.086 156.441 13.1174 156.521 13.1174H156.932V17.7191H156.481C156.401 17.7191 156.331 17.7505 156.266 17.8148C156.2 17.8792 156.168 17.9549 156.168 18.0472V18.5265C156.168 18.6122 156.199 18.6836 156.265 18.7484C156.331 18.8132 156.401 18.8442 156.481 18.8442H158.832C158.924 18.8442 158.995 18.8152 159.054 18.7529C159.116 18.6871 159.144 18.6147 159.144 18.5265V18.0472C159.144 17.9525 159.115 17.8757 159.054 17.8108C158.995 17.7485 158.924 17.7191 158.832 17.7191H158.53V13.1174H160.711V17.7191H160.339C160.259 17.7191 160.188 17.7505 160.123 17.8153C160.058 17.8792 160.027 17.9549 160.027 18.0472V18.5265C160.027 18.6127 160.057 18.6836 160.123 18.7484ZM133.54 15.1249H134.447C134.609 15.1249 134.751 15.0931 134.868 15.0292C134.986 14.9654 135.079 14.8771 135.146 14.7674C135.206 14.6666 135.25 14.5539 135.276 14.4317C135.301 14.3151 135.315 14.1914 135.315 14.0652C135.315 13.938 135.301 13.8158 135.276 13.7026C135.249 13.5774 135.194 13.4642 135.114 13.366C135.033 13.2662 134.922 13.1874 134.783 13.1326C134.648 13.0797 134.483 13.0542 134.278 13.0542H133.54V15.1249Z" fill="#2D3448"/>
<path d="M31.6687 11.1092C31.2264 11.6733 30.9612 12.3067 30.8574 13.0413C30.825 13.2792 30.8078 13.5261 30.8078 13.7849C30.8078 14.4332 30.2734 14.9599 29.6155 14.9599C28.9586 14.9599 28.4236 14.4332 28.4236 13.7849C28.4236 13.6687 28.4297 13.5535 28.4408 13.4422C28.5152 12.6742 28.8427 12.0369 29.3817 11.6264C29.8544 11.2679 30.4769 11.0853 31.1975 11.0853C31.3509 11.0853 31.5078 11.0928 31.6687 11.1092Z" fill="#EE3338"/>
<path d="M24.9359 21.8317C24.7547 22.3029 24.6155 22.6631 24.6874 22.9822V22.9837C24.702 23.0421 24.7228 23.0984 24.7506 23.1548C25.0725 23.7871 25.2243 24.5083 25.2243 26.8971C25.2243 27.9589 24.4708 28.3369 23.7632 28.3369H21.4864C20.9276 28.3369 20.5051 27.922 20.5051 27.3699C20.5051 26.9934 20.5051 26.4783 20.8289 25.9855C20.9529 25.7945 21.127 25.6059 21.367 25.4309C21.5365 25.3078 21.6058 25.0913 21.54 24.8948C21.4742 24.6978 21.288 24.5646 21.0769 24.5646C19.8755 24.5646 18.7044 23.2411 18.468 21.6133C18.4301 21.3504 18.1831 21.1679 17.9174 21.2053C17.6507 21.2422 17.466 21.4861 17.5034 21.7489C17.5181 21.8531 17.5378 21.9564 17.5581 22.0581C17.6203 22.3558 17.7079 22.6426 17.8167 22.9149C16.4832 22.9688 15.3227 22.6296 14.2857 21.8831C14.1384 21.7778 13.9406 21.7619 13.7776 21.8431C13.6146 21.9249 13.5109 22.091 13.5109 22.2706V27.3699C13.5109 27.9041 13.0716 28.3369 12.5296 28.3369H10.4632C9.97128 28.3369 9.56232 27.9784 9.493 27.5131C9.49047 27.4946 9.48793 27.4757 9.48691 27.4577C9.48336 27.4288 9.4819 27.3989 9.4819 27.3699C9.4819 26.8298 9.617 26.4363 9.8837 26.2014C10.0897 26.0189 10.3903 25.9097 10.7785 25.8758C11.0477 25.8523 11.2451 25.6194 11.2208 25.3551C11.2208 25.3531 11.2208 25.3521 11.2193 25.3496C11.1965 25.1193 11.0098 24.9427 10.7836 24.9198C10.7547 24.9173 10.7228 24.9173 10.6919 24.9198C10.4257 24.9437 10.1808 24.9956 9.95809 25.0733V20.8801C10.2294 20.93 10.5047 20.9699 10.7836 20.9973C11.154 21.0373 11.5285 21.0562 11.9086 21.0562H11.9147C14.1395 21.0552 16.2311 20.4073 18.0505 19.2698C19.8694 18.1322 21.4155 16.5064 22.5482 14.5504C23.9642 14.6776 24.9004 15.7743 25.2841 16.9657C25.3276 17.1043 25.3655 17.2445 25.3949 17.3836C25.5103 17.9322 25.5579 18.4324 25.5604 18.8898L25.4096 20.34C25.2805 20.9375 25.0918 21.4292 24.9359 21.8317Z" fill="#FFEECE"/>
<path d="M25.2835 16.9656C24.3386 15.7981 23.0142 16.0849 21.2262 17.9306C19.0581 20.1708 16.1577 21.4889 13.065 21.4889H13.0635C11.9809 21.4889 10.9363 21.3234 9.95759 21.0127V20.88C10.5907 20.9962 11.242 21.0561 11.908 21.0561H11.9141C14.1389 21.0551 16.2306 20.4067 18.0499 19.2697C19.8689 18.1321 21.415 16.5062 22.5476 14.5503C23.9637 14.6775 24.8999 15.7741 25.2835 16.9656Z" fill="white"/>
<path d="M7.57189 26.0293C7.57189 27.9574 5.98528 29.5194 4.02974 29.5194C2.07319 29.5194 0.487602 27.9574 0.487602 26.0293C0.487602 25.4139 0.64955 24.8349 0.934483 24.3327C1.53876 23.2619 2.69771 22.5388 4.02974 22.5388C5.45539 22.5388 6.68674 23.3702 7.24646 24.5686C7.45595 25.0129 7.57189 25.5072 7.57189 26.0293Z" fill="#EE3338"/>
<path d="M4.11579 26.9697C2.82424 26.9697 1.71033 26.2221 1.19412 25.1424C1.15059 25.3229 1.12479 25.5109 1.12479 25.7049C1.12479 27.048 2.23009 28.1372 3.59299 28.1372C4.71145 28.1372 5.65481 27.4036 5.95796 26.3987C5.43517 26.7578 4.80103 26.9697 4.11579 26.9697Z" fill="#FFC32D"/>
<path d="M1.29043 26.9046C1.29043 24.977 2.87652 23.4141 4.83256 23.4141C5.658 23.4141 6.41713 23.6933 7.0194 24.1596C6.39132 23.1856 5.28703 22.5388 4.02889 22.5388C2.07284 22.5388 0.486755 24.1017 0.486755 26.0293C0.486755 27.1434 1.01714 28.1354 1.84207 28.7743C1.49337 28.2336 1.29043 27.5928 1.29043 26.9046Z" fill="white"/>
<path d="M4.02899 30C1.80725 30 0 28.2191 0 26.0297C0 24.9355 0.465098 23.8787 1.27586 23.1312C1.47171 22.9496 1.78043 22.9596 1.96414 23.1531C2.14785 23.3466 2.13773 23.6503 1.94137 23.8314C1.31786 24.4069 0.974226 25.1879 0.974226 26.0297C0.974226 27.6894 2.34472 29.04 4.02899 29.04C5.71377 29.04 7.08428 27.6894 7.08428 26.0297C7.08428 25.2821 6.80439 24.566 6.29628 24.0114C6.11612 23.8149 6.13181 23.5112 6.33121 23.3336C6.5311 23.1561 6.83934 23.1716 7.01946 23.3681C7.68903 24.0992 8.05797 25.0437 8.05797 26.0297C8.05797 28.2191 6.25073 30 4.02899 30Z" fill="#2D3448"/>
<path d="M2.49402 26.4068C2.49402 26.6198 2.31892 26.7918 2.10333 26.7918C1.88722 26.7918 1.71211 26.6198 1.71211 26.4068C1.71211 26.1939 1.88722 26.0218 2.10333 26.0218C2.31892 26.0218 2.49402 26.1939 2.49402 26.4068Z" fill="white"/>
<path d="M10.783 20.9974V24.9198C10.7536 24.9173 10.7223 24.9173 10.6914 24.9198C10.4247 24.9437 10.1802 24.9956 9.95759 25.0734V20.8802C10.2289 20.9301 10.5041 20.9699 10.783 20.9974Z" fill="white"/>
<path d="M8.98314 20.6554V21.6973C8.16478 21.7571 7.37984 22.3067 6.9476 22.6678C6.87676 22.7261 6.78416 22.8069 6.68344 22.9016C6.66473 22.8717 6.64799 22.8428 6.62725 22.8139C6.49672 22.6368 6.32411 22.4842 6.1232 22.3949C6.07815 22.375 6.02805 22.3665 5.97694 22.376H5.97592C5.96378 22.3775 5.95365 22.3795 5.94303 22.3834C5.84434 22.4119 5.77601 22.4947 5.76134 22.5884C5.75881 22.5984 5.7578 22.6089 5.75881 22.6189C5.75678 22.6448 5.76033 22.6728 5.76842 22.7001L5.77855 22.7336C5.78209 22.7466 5.78563 22.759 5.79069 22.772C5.8332 22.9171 5.86964 23.0443 5.89545 23.1729C5.92481 23.3096 5.94657 23.4453 5.9572 23.5759C5.96226 23.6418 5.96732 23.7016 5.96479 23.7534C5.96226 23.8233 5.9572 23.8941 5.94758 23.9624C5.92835 24.1001 5.89292 24.2362 5.84282 24.3644C5.6419 24.8841 5.18439 25.2955 4.65098 25.4451C4.38578 25.5199 4.1044 25.5379 3.82655 25.4935C3.55023 25.4476 3.27745 25.3434 3.03756 25.1913C2.95253 25.1369 2.87105 25.0781 2.79514 25.0132C2.68481 24.9199 2.58461 24.8142 2.49857 24.7015C2.30929 24.4541 2.18783 24.1689 2.161 23.8796C2.15847 23.8467 2.15493 23.8158 2.15493 23.7834L2.15341 23.7355L2.15493 23.6781C2.16 23.6023 2.15746 23.5256 2.16708 23.4503C2.17568 23.3744 2.18074 23.2976 2.19289 23.2218L2.23439 22.9949C2.29765 22.6927 2.40241 22.3964 2.53501 22.1097C2.80171 21.5351 3.19242 21.0045 3.65245 20.5382C4.11148 20.0684 4.64592 19.6634 5.22185 19.3488C5.38532 19.259 5.55182 19.1797 5.72136 19.1074C5.96631 19.2789 6.21936 19.4421 6.47846 19.5936C7.25686 20.047 8.09698 20.4061 8.98314 20.6554Z" fill="#F5D394"/>
<path d="M2.49891 24.7017C2.31014 24.4543 2.18817 24.1691 2.16135 23.8798C2.15933 23.8469 2.15527 23.8159 2.15527 23.7836L2.15427 23.7357L2.15527 23.6778C2.16034 23.6025 2.15781 23.5257 2.16793 23.4499C2.17603 23.3746 2.18109 23.2978 2.19323 23.222L2.23473 22.9951C2.29799 22.6929 2.40276 22.3966 2.53535 22.1099C2.80206 21.5348 3.19277 21.0047 3.65331 20.5379C4.11233 20.0686 4.64676 19.6631 5.22269 19.3489C5.38565 19.2592 5.55267 19.1799 5.7217 19.1076C5.96665 19.2791 6.2202 19.4422 6.47934 19.5938C4.26669 20.1733 2.22461 22.9796 2.49891 24.7017Z" fill="white"/>
<path d="M20.1637 27.4583C19.8514 27.8348 19.4046 28.1969 18.9733 28.1969H17.5963C16.785 28.1969 16.1291 27.5496 16.1291 26.7501C16.1291 25.2869 17.035 25.025 17.3761 24.8081C16.99 24.2934 16.5547 23.9827 16.2784 23.5364L16.2789 23.5359C16.9176 23.5667 17.7021 23.5324 18.7163 23.4241C19.3129 24.4415 20.2578 25.1048 21.2234 25.1048C20.1727 25.8704 20.1632 26.8458 20.1632 27.4303C20.1632 27.4403 20.1632 27.4483 20.1637 27.4583Z" fill="#E28536"/>
<path d="M11.2289 25.3486C11.2289 25.9964 10.988 26.4736 10.4617 26.4736C9.71924 26.4736 9.49402 27.2656 9.49402 27.4851C9.49402 27.495 9.49249 27.5045 9.49249 27.513C9.48539 27.4661 9.4819 27.4177 9.4819 27.3703C9.4819 26.8303 9.617 26.4368 9.88369 26.2013C10.0892 26.0193 10.3903 25.9096 10.7785 25.8762C11.0477 25.8523 11.2446 25.6193 11.2203 25.3555C11.2203 25.353 11.2203 25.352 11.2193 25.3496L11.2289 25.3486Z" fill="white"/>
<path d="M17.8156 22.9148C16.4826 22.9686 15.3221 22.6295 14.2846 21.8829C14.1374 21.7777 13.94 21.7617 13.7771 21.8435C13.6136 21.9253 13.5104 22.0909 13.5104 22.2704V27.3703C13.5104 27.9039 13.0706 28.3368 12.5291 28.3368H10.4626C9.97071 28.3368 9.56131 27.9782 9.49199 27.5129C9.48945 27.4949 9.48692 27.476 9.4859 27.4576L9.49351 27.3918C9.72932 27.8136 10.7157 27.7852 11.2699 27.5234C12.9673 26.7219 12.9516 23.1965 12.9516 23.1965V22.7866C12.9516 22.2166 13.4197 21.7557 13.9987 21.7557C13.9987 21.7557 14.1825 21.8071 14.3965 21.8654C14.6106 21.9213 14.8545 21.9836 14.9725 22.0041C16.0585 22.1901 16.8718 22.3617 17.5576 22.0579C17.6198 22.3557 17.7074 22.6424 17.8156 22.9148Z" fill="#E28536"/>
<path d="M8.98339 20.676V21.6974C8.16503 21.7572 7.3801 22.3068 6.94792 22.6679C6.87702 22.7262 6.78442 22.807 6.6837 22.9017C6.66499 22.8718 6.64831 22.8429 6.62757 22.814C6.49698 22.6369 6.3244 22.4843 6.12347 22.3951C6.07843 22.3751 6.02833 22.3666 5.97721 22.3761C6.45245 21.5193 8.05474 20.9039 8.98339 20.676Z" fill="#FFC32D"/>
<path d="M25.2242 26.8971C25.2242 27.9589 24.4706 28.3369 23.7631 28.3369H21.4862C20.927 28.3369 20.5044 27.922 20.5044 27.3699C20.5044 26.9929 20.5044 26.4782 20.8283 25.9855C21.5581 27.7146 24.8588 26.944 24.6872 22.9832C24.7019 23.0421 24.7227 23.0984 24.7505 23.1547C25.0719 23.7871 25.2242 24.5083 25.2242 26.8971Z" fill="#E28536"/>
<path d="M5.75959 22.6186C5.75605 22.6041 5.75201 22.5896 5.74897 22.5752L5.76212 22.5881C5.75959 22.5981 5.75859 22.6086 5.75959 22.6186Z" fill="#FFC32D"/>
<path d="M5.96544 23.7534C5.96291 23.8233 5.95784 23.8941 5.94823 23.9624C5.929 24.1 5.89357 24.2362 5.84346 24.3644C5.64255 24.884 5.18504 25.2954 4.65162 25.4456C4.38592 25.5199 4.10504 25.5378 3.8272 25.4934C3.55087 25.4476 3.27809 25.3433 3.0382 25.1913C2.95318 25.1369 2.8717 25.078 2.79578 25.0132L2.87878 24.6811C3.61059 25.5114 6.04439 24.4123 5.79134 22.7719C5.83385 22.9171 5.87029 23.0443 5.8961 23.1729C5.92495 23.3096 5.94721 23.4452 5.95784 23.5764C5.9629 23.6417 5.96797 23.7016 5.96544 23.7534Z" fill="#FFC32D"/>
<path d="M4.72261 25.8758C4.60318 25.7287 4.53131 25.5726 4.48424 25.4175C4.4387 25.2629 4.41946 25.1088 4.41795 24.9582C4.41491 24.6569 4.48829 24.3737 4.59659 24.1174C4.63557 24.0251 4.74336 23.9817 4.83648 24.0196C4.91645 24.053 4.96047 24.1348 4.94681 24.2156L4.9458 24.2226C4.90733 24.456 4.90784 24.6909 4.96301 24.8998C4.98983 25.0041 5.02879 25.1018 5.07839 25.1856C5.1285 25.2684 5.19075 25.3367 5.24945 25.3766C5.41798 25.4918 5.45948 25.7202 5.34257 25.8863C5.22566 26.0524 4.99387 26.0937 4.82535 25.9781C4.796 25.9576 4.76968 25.9337 4.74792 25.9072L4.72261 25.8758Z" fill="#2D3448"/>
<path d="M3.00287 26.0229C2.972 25.9879 2.94315 25.9501 2.91734 25.9116C2.89507 25.8752 2.88546 25.8478 2.87027 25.8149C2.85509 25.782 2.84699 25.7541 2.84041 25.7276L2.82017 25.6463C2.80245 25.5461 2.79486 25.4523 2.79436 25.3636C2.79335 25.1855 2.81106 25.0189 2.84041 24.8554C2.86977 24.6918 2.90975 24.5317 2.9639 24.3736C3.01856 24.216 3.08536 24.0599 3.18658 23.9108C3.24326 23.828 3.35713 23.8061 3.44114 23.8614C3.51453 23.9103 3.54084 24.0021 3.50845 24.0799L3.50491 24.0878C3.45582 24.2051 3.42546 24.3417 3.40774 24.4798C3.38952 24.6185 3.38294 24.7601 3.38649 24.8997C3.38952 25.0389 3.4037 25.1786 3.43102 25.3042C3.44418 25.3676 3.4624 25.4239 3.48163 25.4717L3.49732 25.4987C3.50188 25.5092 3.50643 25.5172 3.51048 25.5172C3.51351 25.5177 3.51807 25.5266 3.51756 25.5211C3.51604 25.5127 3.51098 25.5047 3.50441 25.4992C3.65117 25.6359 3.65775 25.8637 3.51959 26.0084C3.38092 26.153 3.14964 26.159 3.00287 26.0229Z" fill="#2D3448"/>
<path d="M9.78057 28.631C9.73098 28.3512 9.737 28.0649 9.80182 27.7951C9.86556 27.5248 9.98956 27.275 10.1555 27.0675C10.2183 26.9887 10.3337 26.9752 10.4132 27.0371C10.481 27.0889 10.5012 27.1787 10.4678 27.2521L10.4663 27.2566C10.2897 27.65 10.316 28.0819 10.483 28.434C10.5701 28.6166 10.4901 28.833 10.3053 28.9187C10.1201 29.0041 9.9 28.9257 9.81343 28.7437C9.79979 28.7138 9.78964 28.6834 9.78406 28.6529L9.78057 28.631Z" fill="#2D3448"/>
<path d="M10.9314 28.631C10.8818 28.3512 10.8884 28.0649 10.9527 27.7951C11.0165 27.5248 11.1405 27.275 11.3064 27.0675C11.3692 26.9887 11.4846 26.9752 11.564 27.0371C11.6319 27.0889 11.6521 27.1787 11.6187 27.2521L11.6171 27.2566C11.441 27.65 11.4668 28.0819 11.6339 28.434C11.7209 28.6166 11.6409 28.833 11.4562 28.9187C11.2715 29.0041 11.0513 28.9257 10.9643 28.7437C10.9506 28.7138 10.941 28.6834 10.935 28.6529L10.9314 28.631Z" fill="#2D3448"/>
<path d="M20.6485 28.631C20.5994 28.3512 20.6055 28.0649 20.6698 27.7951C20.7335 27.5248 20.8575 27.275 21.0235 27.0675C21.0863 26.9887 21.2017 26.9752 21.2816 27.0371C21.3489 27.0889 21.3692 27.1787 21.3363 27.2521L21.3343 27.2566C21.1582 27.65 21.184 28.0819 21.3515 28.434C21.438 28.6166 21.3581 28.833 21.1733 28.9187C20.9886 29.0041 20.7685 28.9257 20.6814 28.7437C20.6678 28.7138 20.6581 28.6834 20.6525 28.6529L20.6485 28.631Z" fill="#2D3448"/>
<path d="M21.9277 28.631C21.8782 28.3512 21.8847 28.0649 21.949 27.7951C22.0127 27.5248 22.1367 27.275 22.3028 27.0675C22.3655 26.9887 22.4809 26.9752 22.5603 27.0371C22.6281 27.0889 22.6484 27.1787 22.615 27.2521L22.6135 27.2566C22.4369 27.65 22.4632 28.0819 22.6302 28.434C22.7173 28.6166 22.6373 28.833 22.4526 28.9187C22.2678 29.0041 22.0472 28.9257 21.9606 28.7437C21.947 28.7138 21.9373 28.6834 21.9313 28.6529L21.9277 28.631Z" fill="#2D3448"/>
<path d="M16.7728 28.0626C16.7232 27.7828 16.7297 27.4966 16.794 27.2268C16.8578 26.9564 16.9817 26.7066 17.1478 26.4991C17.2105 26.4203 17.3259 26.4069 17.4054 26.4687C17.4732 26.5206 17.4935 26.6103 17.46 26.6841L17.4585 26.6881C17.2819 27.0816 17.3082 27.5135 17.4752 27.8656C17.5623 28.0481 17.4823 28.2646 17.2975 28.3504C17.1128 28.4356 16.8922 28.3574 16.8056 28.1753C16.792 28.1454 16.7823 28.115 16.7763 28.0846L16.7728 28.0626Z" fill="#2D3448"/>
<path d="M17.9268 28.0626C17.8777 27.7828 17.8837 27.4966 17.948 27.2268C18.0118 26.9564 18.1357 26.7066 18.3017 26.4991C18.3645 26.4203 18.4799 26.4069 18.5599 26.4687C18.6272 26.5206 18.6474 26.6103 18.6145 26.6841L18.6125 26.6881C18.4364 27.0816 18.4622 27.5135 18.6297 27.8656C18.7163 28.0481 18.6363 28.2646 18.4515 28.3504C18.2668 28.4356 18.0467 28.3574 17.9596 28.1753C17.946 28.1454 17.9363 28.115 17.9308 28.0846L17.9268 28.0626Z" fill="#2D3448"/>
<path d="M24.8295 4.01542C24.8295 4.74704 25.4313 5.33951 26.1732 5.33951C26.9157 5.33951 27.5169 4.74704 27.5169 4.01542C27.5169 3.17757 27.7361 2.36367 28.5898 1.62507C26.2942 1.03409 24.8295 2.18214 24.8295 4.01542Z" fill="#EE3338"/>
<path d="M31.6684 11.1092C31.2261 11.6732 30.9609 12.3066 30.8572 13.0412C30.759 12.5131 30.6188 11.9157 30.4558 11.6034C29.7398 13.1974 29.0884 13.4143 28.4406 13.4423C28.515 12.6742 28.8424 12.0369 29.3814 11.6264C29.8541 11.2678 30.4766 11.0853 31.1972 11.0853C31.3506 11.0853 31.5075 11.0927 31.6684 11.1092Z" fill="#FFC32D"/>
<path d="M24.5331 4.00875C25.4795 3.91249 25.5726 3.12003 26.7098 2.50412C26.2705 3.48161 27.2979 4.21372 27.2979 4.21372L28.1623 2.26274L27.9153 1.38499L25.8646 1.70966L24.5331 4.00875Z" fill="#FFC32D"/>
<path d="M24.3081 6.75462C24.3081 9.65818 23.5227 12.3193 22.1967 14.5162C19.9724 18.2022 16.2218 20.5771 12.0981 20.5771H12.0971C6.46539 20.5771 1.90094 16.0772 1.90094 10.5279C1.90094 9.22381 2.15297 7.97799 2.61149 6.83493L3.20817 5.78263L3.92177 4.52387C5.78013 2.06868 8.74986 0.48027 12.0971 0.48027H12.9757H24.5384C22.0242 2.2981 19.141 7.64087 21.263 8.64181C22.3906 9.17343 23.6619 7.80093 24.3081 6.75462Z" fill="#EE3338"/>
<path d="M17.8783 7.13888C17.6678 7.45456 17.3257 7.71088 16.9628 7.82306C16.7791 7.87644 16.6045 7.90688 16.4112 7.91688C16.2163 7.92731 16.0068 7.91038 15.7608 7.88894L15.7401 7.88644C15.6733 7.88044 15.6049 7.89938 15.5513 7.94525C15.4592 8.02106 15.4344 8.14575 15.4835 8.248C15.4921 8.26844 15.5043 8.28738 15.5184 8.30538C15.7097 8.52975 15.9825 8.68788 16.2882 8.76869C16.4334 8.80806 16.5843 8.8235 16.7361 8.821C16.3818 12.7409 14.8317 14.7398 13.5583 15.7333C12.4956 16.5636 11.415 16.8474 10.6605 16.8474H10.6589C10.5035 16.8474 10.3608 16.8349 10.2353 16.8135C9.17608 16.6259 8.25452 16.212 7.48627 15.5921L7.48475 15.5906C5.79489 14.2241 4.84546 11.8617 4.79283 8.74075C5.00843 8.66994 5.20327 8.56119 5.36016 8.41456C5.39811 8.38069 5.43455 8.34475 5.46745 8.30538C5.50895 8.2545 5.53324 8.18863 5.52565 8.11831C5.5135 7.97769 5.38799 7.87444 5.24477 7.88644L5.22503 7.88894C4.97806 7.91038 4.76854 7.92731 4.5747 7.91688C4.38138 7.90688 4.20728 7.87644 4.02357 7.82306C3.65919 7.71088 3.31808 7.45456 3.10653 7.13888C2.9213 6.86156 2.84235 6.55588 2.88385 6.26163C2.90663 6.24615 2.93243 6.23218 2.96382 6.21723C3.0539 6.17783 3.16625 6.1494 3.28417 6.13444C3.52406 6.10501 3.78976 6.12496 4.04027 6.19129C4.2923 6.25563 4.53219 6.36731 4.72957 6.52494C4.92695 6.6805 5.07776 6.8845 5.15671 7.12488L5.15924 7.13038C5.19568 7.24206 5.31157 7.31438 5.43354 7.29294C5.56613 7.27 5.6547 7.14631 5.63193 7.01569C5.60511 6.86656 5.55601 6.71994 5.49022 6.58131V6.57981C5.40419 6.40025 5.28728 6.23218 5.14861 6.08955C4.90468 5.83371 4.60406 5.6427 4.28269 5.51054C4.03319 5.4098 3.77002 5.34048 3.4947 5.31056C3.51798 5.2926 3.54228 5.27465 3.56657 5.2567C3.72498 5.14598 3.9016 5.0597 4.06962 5.01631C4.15363 4.99088 4.23158 4.98539 4.30091 4.98041L4.43704 4.98788C4.48107 4.99586 4.52612 4.99836 4.57015 5.00833C4.91834 5.07616 5.26046 5.2926 5.57676 5.6043C5.89459 5.915 6.18559 6.2945 6.50243 6.695C6.66435 6.8945 6.83236 7.10044 7.04648 7.30844C7.15627 7.41013 7.28179 7.51338 7.44219 7.60663C7.5176 7.65106 7.60671 7.69194 7.70641 7.72338C7.77218 7.75675 7.84506 7.77569 7.92453 7.77569H8.25801V8.94969C8.25801 8.96613 8.25953 8.98163 8.26055 8.99756C8.28484 9.23994 8.49186 9.42944 8.74543 9.42944C8.99843 9.42944 9.20544 9.23994 9.22973 8.99756C9.23126 8.98163 9.23227 8.96613 9.23227 8.94969V7.77569H9.93926V8.94969C9.93926 8.96613 9.94078 8.98163 9.9418 8.99756C9.96659 9.23994 10.1746 9.42944 10.4266 9.42944C10.6797 9.42944 10.8872 9.23994 10.911 8.99756C10.9125 8.98163 10.9135 8.96613 10.9135 8.94969V7.77569H11.7526V8.94969C11.7526 8.96613 11.7536 8.98163 11.7552 8.99756C11.7794 9.23994 11.9864 9.42944 12.2395 9.42944C12.493 9.42944 12.7 9.23994 12.7243 8.99756C12.7253 8.98163 12.7268 8.96613 12.7268 8.94969V7.77569H12.9303C13.1712 7.78069 13.3867 7.69794 13.5437 7.60663C13.7046 7.51338 13.8286 7.41013 13.9394 7.30844C14.154 7.10044 14.322 6.8945 14.4835 6.695C14.8003 6.2945 15.0913 5.915 15.4091 5.6043C15.7244 5.2926 16.0676 5.07616 16.4163 5.00833C16.4598 4.99836 16.5048 4.99586 16.5488 4.98788L16.684 4.98041C16.7543 4.98539 16.8328 4.99088 16.9167 5.01631C17.0833 5.0597 17.2609 5.14598 17.4183 5.2567C17.4436 5.27465 17.4669 5.2926 17.4912 5.31056C17.2148 5.34048 16.9532 5.4098 16.7032 5.51054C16.3818 5.6427 16.0812 5.83371 15.8362 6.08955C15.734 6.19428 15.6439 6.31594 15.5685 6.44413C15.4638 6.62169 15.3899 6.81669 15.3545 7.01569C15.3337 7.13038 15.4015 7.24706 15.5184 7.284C15.6465 7.32638 15.7851 7.25656 15.8266 7.13038L15.8281 7.12488C15.9071 6.8845 16.0579 6.6805 16.2563 6.52494C16.4527 6.36731 16.6935 6.25563 16.9446 6.19129C17.1966 6.12496 17.4618 6.10501 17.7007 6.13444C17.8202 6.1494 17.932 6.17783 18.022 6.21723C18.0524 6.23218 18.0782 6.24615 18.101 6.26163C18.1436 6.55588 18.0646 6.86156 17.8783 7.13888Z" fill="#F5D394"/>
<path d="M9.56696 15.4174C9.72082 15.6563 9.943 15.9865 10.6809 15.9865C11.2907 15.9865 12.1516 15.7815 12.4633 15.0619C12.7331 14.4374 11.9987 14.6449 11.9168 14.7626C11.7508 15.001 11.4056 15.3686 11.4056 15.3686L10.2214 15.3766L9.56696 15.4174Z" fill="white"/>
<path d="M10.4267 12.0837C9.8594 12.0837 8.93684 12.8962 8.93684 13.2996C8.93684 13.5525 9.60843 13.5879 10.4267 13.5884C11.2451 13.5879 11.9162 13.5525 11.9162 13.2996C11.9162 12.8962 10.9936 12.0837 10.4267 12.0837Z" fill="white"/>
<path d="M16.7355 8.82119C16.3813 12.7411 14.8312 14.7399 13.5578 15.7334C12.495 16.5637 11.4145 16.8476 10.6599 16.8476C14.5062 15.5105 15.9015 11.0484 15.4825 8.24812C15.4916 8.26862 15.5032 8.28756 15.5179 8.3055C15.7092 8.52994 15.982 8.688 16.2877 8.76881C16.4324 8.80819 16.5838 8.82369 16.7355 8.82119Z" fill="#FFC32D"/>
<path d="M7.48487 15.5908C5.79503 14.2243 4.8451 11.8614 4.79297 8.74093C5.00805 8.67012 5.2029 8.56087 5.3603 8.41425C5.4524 10.273 5.74493 13.4837 7.48487 15.5908Z" fill="white"/>
<path d="M27.4393 1.95011C26.8841 1.95011 26.4064 2.08925 26.0465 2.36355C25.5758 2.72163 25.3173 3.30862 25.3173 4.0158C25.3173 4.4811 25.7014 4.86013 26.1741 4.86013C26.6462 4.86013 27.0304 4.4811 27.0304 4.0158C27.0304 3.20937 27.2252 2.5381 27.6352 1.9556C27.5689 1.9521 27.5036 1.95011 27.4393 1.95011ZM26.1741 5.82016C25.1644 5.82016 24.343 5.01074 24.343 4.0158C24.343 3.0039 24.7363 2.1476 25.4509 1.604C26.2632 0.985591 27.4216 0.828497 28.7136 1.16114C28.8877 1.20602 29.0224 1.34167 29.0638 1.51473C29.1053 1.68778 29.0472 1.86882 28.9115 1.98602C28.2759 2.5366 28.0046 3.14354 28.0046 4.0158C28.0046 5.01074 27.1832 5.82016 26.1741 5.82016Z" fill="#2D3448"/>
<path d="M24.8114 0.330134C24.7461 0.132642 24.5588 -1.52588e-05 24.3483 -1.52588e-05H11.9081C11.906 -1.52588e-05 11.9046 0.000482242 11.9031 0.000482242C8.49908 0.00197792 5.37901 1.546 3.34249 4.23659C3.18156 4.44954 3.2261 4.74977 3.44118 4.90836C3.52874 4.97319 3.63097 5.00361 3.73218 5.00361C3.88098 5.00361 4.02774 4.93679 4.12289 4.81061C5.97518 2.3634 8.81284 0.960017 11.9076 0.960017H11.9126H23.0649C21.3133 2.73345 19.6842 5.66691 19.8618 7.53413C19.9494 8.45825 20.4545 8.88113 20.8629 9.07413C21.7921 9.51201 22.7663 9.02575 23.5588 8.24226C22.9059 14.9011 17.9301 20.0963 11.9081 20.0963C11.9065 20.0963 11.9051 20.0968 11.9036 20.0968C6.55165 20.0943 2.19823 15.8028 2.19823 10.5279C2.19823 9.31351 2.42647 8.13007 2.87538 7.01094C2.97457 6.76457 2.85159 6.48582 2.60158 6.38807C2.35157 6.29082 2.06866 6.41151 1.96947 6.65788C1.47502 7.88969 1.2245 9.19232 1.2245 10.5279C1.2245 16.3335 6.01668 21.0568 11.9076 21.0568C11.9101 21.0568 11.9121 21.0563 11.9147 21.0563C18.9129 21.0523 24.6054 14.6373 24.6054 6.75363C24.6054 6.53869 24.4601 6.34963 24.2501 6.29182C24.0396 6.23346 23.8159 6.32076 23.7025 6.50426C23.1554 7.38951 22.0593 8.57444 21.2834 8.20838C21.1129 8.12807 20.8806 7.96151 20.8315 7.44482C20.6726 5.77114 22.6995 2.26715 24.6363 0.866754C24.8063 0.744073 24.8767 0.527625 24.8114 0.330134Z" fill="#2D3448"/>
<path d="M23.559 8.24257C22.7669 9.02557 21.7922 9.51232 20.863 9.07444C20.4546 8.88144 19.9495 8.45851 19.862 7.53438C19.7015 5.84574 21.0179 3.28633 22.5665 1.49992H13.133L13.1325 1.50042C12.2696 1.50042 11.432 1.60715 10.6318 1.80614C9.24869 2.98859 8.8828 4.36556 8.93697 4.99344C9.56702 3.76559 12.1906 1.71387 14.1133 2.39063C12.5221 3.24344 11.9168 5.44827 10.7366 6.10009C12.2964 6.10009 13.3232 5.84475 14.05 5.53954C14.2281 5.30813 14.4199 5.07423 14.6416 4.85131C14.8395 4.65381 15.0627 4.4638 15.3223 4.30222C15.5809 4.14113 15.8805 4.01096 16.2004 3.94862C16.2803 3.93217 16.3613 3.92419 16.4418 3.91272C16.5227 3.90723 16.6037 3.90424 16.6847 3.90125C16.8664 3.90673 17.041 3.92967 17.1994 3.97406C17.5193 4.06084 17.7996 4.20297 18.0522 4.38002C18.3032 4.55806 18.5249 4.775 18.7091 5.02685C18.8918 5.27871 19.0355 5.56946 19.1114 5.88564C19.1878 6.20083 19.1939 6.54144 19.1195 6.85763C19.0461 7.17382 18.9055 7.46407 18.7232 7.71544C18.4631 8.07101 18.125 8.35682 17.7343 8.55376C17.7085 8.91388 17.6726 9.25794 17.629 9.59063C17.7207 10.0734 17.8781 10.5287 18.1286 10.8633C18.6428 9.23701 19.2809 8.35232 19.6109 7.94882C19.2511 12.1515 19.9955 13.1624 18.4783 15.65C19.7805 15.1937 20.9956 13.1171 21.3645 12.0109C21.6454 12.9809 21.566 13.8013 21.4936 14.4267C22.6025 12.6378 23.3353 10.5267 23.559 8.24257Z" fill="#FFC32D"/>
<path d="M17.8781 7.13887C17.667 7.45406 17.3254 7.71144 16.9621 7.82312C16.7783 7.8765 16.6042 7.90694 16.4109 7.91737C16.2161 7.92687 16.0066 7.91044 15.7601 7.8885L15.7393 7.8865C15.6736 7.881 15.6053 7.89994 15.5506 7.94531C15.4408 8.03612 15.4266 8.19669 15.5182 8.30487C15.7095 8.52981 15.9818 8.68794 16.2874 8.76919C16.4322 8.80762 16.584 8.82356 16.7353 8.82106C16.3811 12.7405 14.8309 14.7399 13.5581 15.7338C12.2742 16.7362 10.9654 16.9417 10.2346 16.813C6.84226 16.2166 4.86902 13.2796 4.7926 8.74081C5.05881 8.6535 5.29515 8.50637 5.46621 8.30487C5.50872 8.25506 5.532 8.18819 5.52593 8.11837C5.51277 7.97775 5.38726 7.8745 5.24454 7.8865L5.22481 7.8885C4.97783 7.91044 4.76831 7.92687 4.57397 7.91737C4.38064 7.90694 4.20604 7.8765 4.02284 7.82312C3.65896 7.71144 3.31734 7.45406 3.10681 7.13887C2.92108 6.86162 2.84162 6.55587 2.88362 6.26219C2.9064 6.2467 2.93221 6.23174 2.96359 6.21777C3.05317 6.17837 3.16501 6.14945 3.28445 6.13449C3.52383 6.10456 3.78902 6.12551 4.04004 6.19084C4.29157 6.25569 4.53197 6.36687 4.72934 6.5245C4.92672 6.68056 5.07804 6.88456 5.15699 7.12494L5.15902 7.13044C5.19545 7.24262 5.31135 7.31394 5.4323 7.293C5.5649 7.27056 5.65397 7.14587 5.6312 7.01525C5.57047 6.67112 5.39283 6.34244 5.14839 6.0891C4.90394 5.83326 4.60333 5.64275 4.28145 5.51109C4.03246 5.40985 3.7703 5.34053 3.49397 5.3106C3.51776 5.29265 3.54155 5.2742 3.56635 5.25724C3.72475 5.14603 3.90138 5.06025 4.06889 5.01586C4.15291 4.99092 4.23084 4.98544 4.30068 4.98095L4.43632 4.98794C4.48035 4.99591 4.52539 4.9989 4.56891 5.00838C4.91811 5.0767 5.26023 5.29315 5.57603 5.60435C5.89386 5.91505 6.18537 6.29456 6.50167 6.69456C6.66309 6.8945 6.83116 7.101 7.04623 7.3075C7.15557 7.41069 7.28153 7.51394 7.44098 7.60669C7.5169 7.65056 7.60646 7.6925 7.70565 7.72387C7.77149 7.75631 7.84487 7.77675 7.92377 7.77675H8.25782V8.94925C8.25782 9.21406 8.47594 9.4295 8.74517 9.4295C9.0139 9.4295 9.23202 9.21406 9.23202 8.94925V7.77675H9.93958V8.94925C9.93958 9.21406 10.1577 9.4295 10.4269 9.4295C10.6957 9.4295 10.9138 9.21406 10.9138 8.94925V7.77675H11.7524V8.94925C11.7524 9.21406 11.9705 9.4295 12.2397 9.4295C12.5084 9.4295 12.7266 9.21406 12.7266 8.94925V7.77675H12.93C13.171 7.78075 13.386 7.69794 13.5434 7.60669C13.7034 7.51394 13.8289 7.41069 13.9387 7.3075C14.1533 7.101 14.3213 6.8945 14.4832 6.69456C14.7996 6.29456 15.0911 5.91505 15.4084 5.60435C15.7247 5.29315 16.0668 5.0767 16.4155 5.00838C16.4595 4.9989 16.5045 4.99591 16.5486 4.98794L16.6837 4.98095C16.7541 4.98544 16.8315 4.99092 16.916 5.01586C17.083 5.06025 17.2602 5.14603 17.418 5.25724C17.4433 5.2742 17.4666 5.29265 17.4904 5.3106C17.2146 5.34053 16.9519 5.40985 16.7029 5.51109C16.3816 5.64275 16.081 5.83326 15.8365 6.0891C15.5921 6.34244 15.4145 6.67112 15.3537 7.01525C15.333 7.13094 15.4013 7.24712 15.5182 7.2845C15.6467 7.32594 15.7844 7.25662 15.8259 7.13044L15.8279 7.12494C15.9069 6.88456 16.0582 6.68056 16.2556 6.5245C16.453 6.36687 16.6928 6.25569 16.9444 6.19084C17.1954 6.12551 17.4611 6.10456 17.7005 6.13449C17.8194 6.14945 17.9313 6.17837 18.0213 6.21777C18.0522 6.23174 18.078 6.2467 18.1008 6.26219C18.1433 6.55587 18.0638 6.86162 17.8781 7.13887ZM19.1115 5.88562C19.0355 5.56944 18.8918 5.27869 18.7086 5.02684C18.5249 4.77498 18.3032 4.55804 18.0517 4.38C17.7997 4.20295 17.5193 4.06082 17.1994 3.97404C17.041 3.92915 16.8659 3.90671 16.6847 3.90123C16.6032 3.90422 16.5228 3.90721 16.4418 3.9127C16.3613 3.92417 16.2799 3.93215 16.2004 3.9486C15.8801 4.01095 15.581 4.14111 15.3223 4.3022C15.0627 4.46378 14.839 4.65379 14.6411 4.85129C14.2469 5.24826 13.9458 5.67865 13.6512 6.06915C13.5065 6.26462 13.3628 6.45119 13.2221 6.59781C13.1527 6.66962 13.0849 6.72894 13.0297 6.76637C12.9736 6.80475 12.9432 6.81375 12.93 6.81675H8.05487C8.04174 6.81375 8.01136 6.80475 7.95466 6.76637C7.89948 6.72894 7.83218 6.66962 7.76235 6.59781C7.62168 6.45119 7.4784 6.26462 7.33367 6.06915C7.03913 5.67865 6.73748 5.24826 6.34324 4.85129C6.14539 4.65379 5.9222 4.46378 5.66258 4.3022C5.40396 4.14111 5.10436 4.01095 4.784 3.9486C4.70454 3.93215 4.62357 3.92417 4.5426 3.9127C4.46212 3.90721 4.38115 3.90422 4.30018 3.90123C4.11849 3.90671 3.94389 3.92915 3.78548 3.97404C3.46563 4.06082 3.18526 4.20295 2.93271 4.38C2.68169 4.55804 2.46003 4.77498 2.27581 5.02684C2.09311 5.27869 1.94887 5.56944 1.87296 5.88562C1.79705 6.20082 1.79097 6.54144 1.86537 6.85762C1.93876 7.17381 2.07944 7.46406 2.26114 7.71544C2.62754 8.21562 3.14527 8.58119 3.75056 8.74925C3.77283 8.75525 3.79611 8.76075 3.81888 8.76619C3.8619 11.3007 4.4515 13.3814 5.57502 14.9508C6.65655 16.4609 8.20873 17.4319 10.0636 17.7581C10.2432 17.7895 10.4436 17.8074 10.6602 17.8074C11.6218 17.8074 12.9098 17.4644 14.1629 16.4864C15.626 15.3438 17.4155 13.0437 17.7339 8.55375C18.1246 8.35625 18.4626 8.071 18.7232 7.71544C18.905 7.46406 19.0461 7.17381 19.119 6.85762C19.1934 6.54144 19.1879 6.20082 19.1115 5.88562Z" fill="#2D3448"/>
<path d="M12.2958 14.6539C12.2219 14.5407 12.0331 14.4923 11.9541 14.5811C11.5564 15.0274 11.1677 15.0314 10.9242 14.9661C10.7719 14.9252 10.6702 14.7846 10.6702 14.6289V14.4379L11.3149 13.8884L11.8569 13.4251C11.9764 13.3233 11.9031 13.1298 11.7451 13.1298H10.4267H9.10789C8.94997 13.1298 8.87659 13.3233 8.99601 13.4251L9.53804 13.8884L10.1828 14.4379V14.7696C10.1828 14.8439 10.1585 14.9192 10.1038 14.9706C9.91864 15.1411 9.57856 15.001 9.52339 15.2224C9.4996 15.3182 9.54615 15.4194 9.62664 15.4788C9.85034 15.6458 10.0745 15.7017 10.2987 15.7221C10.4085 15.7311 10.5189 15.7256 10.6292 15.7251L10.7942 15.7196L10.8767 15.7156L10.9738 15.7092C11.2355 15.6858 11.4992 15.6239 11.7487 15.4927C11.8732 15.4279 11.9916 15.3421 12.0954 15.2349C12.1991 15.1291 12.2846 14.9965 12.3256 14.8514C12.3439 14.7875 12.3352 14.7147 12.2958 14.6539Z" fill="#2D3448"/>
<path d="M14.3769 12.0939C14.3247 11.7637 14.1988 11.6664 13.8445 11.7099C13.8015 11.7148 13.7599 11.7253 13.7184 11.7373C13.7174 11.7378 13.7159 11.7383 13.7149 11.7388C13.4492 11.8186 13.2138 12.0345 13.0509 12.2704C12.9218 12.4569 12.8115 12.7611 12.9537 12.9163C13.0914 13.0659 13.519 12.8739 13.8136 12.7766C14.0312 12.7048 14.4599 12.6235 14.3769 12.0939Z" fill="white"/>
<path d="M13.4261 11.8821C13.4701 12.2128 13.7783 12.4462 14.1143 12.4028C14.4499 12.3589 14.6867 12.0557 14.6422 11.7246C14.5982 11.3939 14.2905 11.1605 13.9545 11.2044C13.6184 11.2477 13.382 11.551 13.4261 11.8821Z" fill="#FFC32D"/>
<path d="M13.9546 11.2044C13.3159 11.2867 12.9247 12.5145 13.1408 12.6402C13.2845 12.7239 13.0694 12.5384 14.1145 12.4028" fill="#FFC32D"/>
<path d="M14.6422 11.9669C14.6366 11.6332 14.29 11.4028 13.9544 11.4467C13.8608 11.4582 13.7763 11.4926 13.7019 11.54C13.1937 11.8432 12.9109 12.5798 13.0971 12.6885C13.2408 12.7723 13.424 12.4681 14.0339 12.5384C14.3892 12.5798 14.6482 12.3254 14.6422 11.9669Z" fill="#2D3448"/>
<path d="M6.47757 12.0939C6.52919 11.7637 6.65515 11.6664 7.00995 11.7099C7.05244 11.7148 7.09449 11.7253 7.13597 11.7373C7.13699 11.7378 7.138 11.7383 7.13902 11.7388C7.40521 11.8186 7.64057 12.0345 7.80351 12.2704C7.93258 12.4569 8.04287 12.7611 7.90068 12.9163C7.76305 13.0659 7.33538 12.8739 7.04033 12.7766C6.82272 12.7048 6.39404 12.6235 6.47757 12.0939Z" fill="white"/>
<path d="M7.4269 11.8821C7.38289 12.2128 7.07464 12.4462 6.73862 12.4028C6.40305 12.3589 6.16622 12.0557 6.21076 11.7246C6.25479 11.3939 6.56249 11.1605 6.89852 11.2044C7.2346 11.2477 7.47092 11.551 7.4269 11.8821Z" fill="#FFC32D"/>
<path d="M6.89934 11.2044C7.53802 11.2867 7.92928 12.5145 7.71364 12.6402C7.56942 12.7239 7.78449 12.5384 6.73945 12.4028" fill="#FFC32D"/>
<path d="M6.21168 11.9669C6.21724 11.6332 6.56389 11.4028 6.89947 11.4467C6.99308 11.4582 7.07762 11.4926 7.15202 11.54C7.66011 11.8432 7.94298 12.5798 7.75677 12.6885C7.61305 12.7723 7.42982 12.4681 6.82 12.5384C6.46469 12.5798 6.2056 12.3254 6.21168 11.9669Z" fill="#2D3448"/>
<path d="M12.5218 18.7842C12.7526 18.7672 12.9581 18.7244 13.1656 18.6675C13.2683 18.6436 13.3706 18.6042 13.4713 18.5772L13.7724 18.4745C14.1702 18.3319 14.5579 18.1673 14.9349 17.9857C15.3114 17.8042 15.6778 17.6067 16.0275 17.3798C16.3783 17.1514 16.7088 16.8976 17.018 16.5654C16.936 17.0152 16.6592 17.4182 16.3343 17.7419C16.0043 18.0676 15.6151 18.3269 15.2006 18.5254C14.7856 18.7239 14.3438 18.8645 13.8863 18.9313C13.7709 18.9433 13.657 18.9587 13.5411 18.9632C13.4237 18.9642 13.3093 18.9707 13.1924 18.9597C13.0755 18.9473 12.9607 18.9393 12.8462 18.9059C12.7891 18.8894 12.7334 18.8819 12.6787 18.8565C12.6246 18.8321 12.5719 18.8101 12.5218 18.7842Z" fill="#FFC32D"/>
<path d="M20.5031 2.79939C20.5031 3.25522 20.1281 3.62427 19.666 3.62427C19.2034 3.62427 18.8284 3.25522 18.8284 2.79939C18.8284 2.34357 19.2034 1.97452 19.666 1.97452C20.1281 1.97452 20.5031 2.34357 20.5031 2.79939Z" fill="white"/>
<path d="M7.98972 8.9975H8.26302C8.2615 8.98157 8.25794 8.96607 8.25794 8.94913V7.77713H7.92344C7.84448 7.77713 7.7711 7.75669 7.70533 7.72375C7.60664 7.69288 7.51702 7.65094 7.44117 7.60707C7.28121 7.51382 7.1557 7.41057 7.04591 7.30738C6.83128 7.10088 6.66327 6.89444 6.50135 6.69494C6.18552 6.29444 5.89351 5.91493 5.57619 5.60423C5.25989 5.29303 4.91776 5.07709 4.56907 5.00826C4.52504 4.99879 4.48 4.99629 4.43647 4.98782L4.30084 4.98083C4.23049 4.98532 4.15306 4.9913 4.06855 5.01624C3.90153 5.06013 3.7244 5.14591 3.5665 5.25712C3.54119 5.27408 3.51792 5.29253 3.49413 5.31048C3.76995 5.34041 4.03261 5.41023 4.28161 5.51147C4.60298 5.64263 4.90359 5.83314 5.14804 6.08898C5.28569 6.23212 5.40159 6.39919 5.48762 6.57869C6.58279 7.37919 7.20783 8.9975 7.98972 8.9975Z" fill="white"/>
<path d="M9.23277 7.77701V8.94945C9.23277 8.96595 9.22973 8.98138 9.2277 8.99738H9.94534C9.94382 8.98138 9.94027 8.96595 9.94027 8.94945V7.77701H9.23277Z" fill="white"/>
<path d="M15.5676 6.44595C15.643 6.31676 15.7336 6.19606 15.8368 6.08883C16.0807 5.83299 16.3814 5.64298 16.7033 5.51132C16.9523 5.41008 17.2144 5.34026 17.4907 5.31083C17.4664 5.29238 17.4432 5.27393 17.4184 5.25697C17.2599 5.14626 17.0834 5.06048 16.9158 5.01609C16.8318 4.99116 16.7539 4.98517 16.6835 4.98068L16.5484 4.98766C16.5044 4.99614 16.4593 4.99913 16.4158 5.00811C16.0666 5.07693 15.7245 5.29288 15.4087 5.60458C15.0908 5.91528 14.7993 6.29432 14.483 6.69476C14.3216 6.89426 14.1535 7.10076 13.9385 7.30769C13.8287 7.41094 13.7032 7.51419 13.5432 7.60694C13.3859 7.69819 13.1712 7.78101 12.9298 7.77701H12.7269V8.94944C12.7269 8.96594 12.7233 8.98138 12.7218 8.99738H12.8646H12.8651C13.6935 8.99738 14.3454 7.18051 15.5676 6.44595Z" fill="white"/>
<path d="M10.9135 7.77701V8.94945C10.9135 8.96595 10.9104 8.98138 10.909 8.99738H11.7571C11.7556 8.98138 11.7526 8.96595 11.7526 8.94945V7.77701H10.9135Z" fill="white"/>
<path d="M5.42153 7.29438V7.29388C5.30462 7.30838 5.1948 7.23901 5.15938 7.13082L5.15735 7.12482C5.0784 6.88494 4.92708 6.68094 4.7297 6.52438C4.53283 6.36726 4.29244 6.25557 4.04041 6.19072C3.78938 6.12539 3.52419 6.10445 3.28481 6.13487C3.16537 6.14933 3.05353 6.17876 2.96395 6.21816C2.93308 6.23162 2.90727 6.24658 2.88398 6.26257C2.87032 6.35632 2.87083 6.45157 2.88145 6.54632C4.17756 6.2401 4.76058 7.46244 5.42153 7.29438Z" fill="#FFC32D"/>
<path d="M18.1009 6.26219C18.0781 6.2467 18.0523 6.23125 18.0209 6.21778C17.9313 6.17838 17.8195 6.14895 17.7 6.13449C17.4607 6.10457 17.1955 6.12552 16.9445 6.19035C16.6929 6.25519 16.4525 6.36688 16.2557 6.524C16.0578 6.68057 15.907 6.88457 15.8275 7.12444L15.8255 7.13044C15.7896 7.24063 15.6797 7.3075 15.5669 7.295C16.2263 7.45757 16.8098 6.24022 18.1034 6.54594C18.114 6.45119 18.1145 6.35594 18.1009 6.26219Z" fill="#FFC32D"/>
<path d="M2.53429 8.03313C2.31313 8.842 2.19824 9.67688 2.19824 10.5282C2.19824 12.6558 2.90728 14.6227 4.10368 16.2131C3.35972 14.8192 2.93612 13.2333 2.93612 11.5486C2.93612 10.5277 3.09251 9.54375 3.37946 8.61563C3.06214 8.4755 2.77671 8.278 2.53429 8.03313Z" fill="white"/>
<path d="M23.0655 0.959915H11.9128H11.9082C9.19047 0.959915 6.67171 2.04263 4.84367 3.96319C5.14126 4.02902 5.42011 4.15071 5.66304 4.30182C5.74603 4.35418 5.82448 4.40954 5.9004 4.4664C7.74662 2.63411 10.3049 1.50052 13.133 1.50052L13.1334 1.50003H22.567C22.731 1.31052 22.8975 1.12998 23.0655 0.959915Z" fill="white"/>
<path d="M19.5308 27.3705C19.5308 27.3854 19.5323 27.4009 19.5328 27.4159C19.4462 27.549 19.2053 27.6572 18.973 27.6572H17.5959C17.0554 27.6572 16.6157 27.2234 16.6157 26.6902C16.6157 25.6793 16.9396 25.5082 17.2822 25.3262C17.3399 25.2958 17.3955 25.2659 17.4472 25.236C17.5706 25.1627 17.6552 25.0395 17.678 24.8993C17.7007 24.7592 17.6592 24.6161 17.5646 24.5088C17.4001 24.3228 17.2356 24.0979 17.0772 23.8625C17.475 23.8894 17.8845 23.8839 18.3045 23.8446C18.7741 24.5442 19.4007 25.0759 20.095 25.3402C19.5308 26.1092 19.5308 26.9241 19.5308 27.3705ZM26.4394 17.6974C26.4141 17.5313 26.3848 17.3622 26.3483 17.1877C26.2825 16.8775 26.1904 16.5812 26.0755 16.3009C26.2466 16.5239 26.2466 16.5239 26.0755 16.3009C25.5072 14.913 24.371 13.9276 23.0263 13.6557C22.876 13.9605 22.7166 14.2592 22.548 14.5504C24.1281 14.6916 25.1114 16.0426 25.3943 17.3837C25.8387 19.4872 25.2951 20.8981 24.9358 21.8317C24.7207 22.3893 24.5659 22.7922 24.7501 23.1548C25.0714 23.7862 25.2243 24.5079 25.2243 26.8977C25.2243 27.959 24.4697 28.337 23.7632 28.337H21.4857C20.9265 28.337 20.505 27.9211 20.505 27.3705C20.505 26.8483 20.505 26.0594 21.3668 25.4305C21.5359 25.3073 21.6057 25.0918 21.5399 24.8949C21.4736 24.6984 21.2874 24.5652 21.0774 24.5652C19.8744 24.5652 18.7038 23.2406 18.468 21.6123C18.43 21.3504 18.183 21.1674 17.9168 21.2053C17.6506 21.2427 17.4654 21.4856 17.5039 21.7484C17.5631 22.1574 17.6703 22.5489 17.8156 22.9149C16.483 22.9683 15.3226 22.6287 14.2851 21.8831C14.1373 21.7769 13.9409 21.7614 13.7775 21.8432C13.6141 21.925 13.5108 22.0901 13.5108 22.2706V27.3705C13.5108 27.9036 13.071 28.337 12.53 28.337H10.4631C9.92156 28.337 9.48178 27.9036 9.48178 27.3705C9.48178 26.8299 9.61694 26.4359 9.88262 26.2005C10.0886 26.0194 10.3902 25.9097 10.7789 25.8758C11.0466 25.8524 11.2445 25.619 11.2207 25.3552C11.197 25.0914 10.9601 24.8964 10.6924 24.9198C10.4246 24.9432 10.1802 24.9951 9.95803 25.0729V20.8802C9.62804 20.8198 9.30267 20.7455 8.98377 20.6557V21.6971C8.16497 21.7569 7.37952 22.307 6.9478 22.6676C6.87746 22.7259 6.78435 22.8072 6.68414 22.9015C6.66537 22.8716 6.64767 22.8421 6.62693 22.8137C6.49736 22.6367 6.3248 22.4846 6.12337 22.3947C6.06872 22.3708 6.00444 22.3644 5.9427 22.3828C5.80555 22.4232 5.72812 22.5648 5.7686 22.7005L5.77923 22.7339C5.82781 22.896 5.8678 23.0336 5.89563 23.1727C5.92448 23.3094 5.94624 23.4451 5.95788 23.5757C5.96294 23.6411 5.9675 23.7019 5.96497 23.7533C5.96244 23.8236 5.95839 23.8934 5.94776 23.9622C5.92802 24.1004 5.8931 24.2356 5.843 24.3652C5.64208 24.8839 5.18457 25.2953 4.65217 25.4454C4.38545 25.5192 4.10457 25.5382 3.82724 25.4928C3.55041 25.4479 3.27813 25.3437 3.03774 25.1916C2.55492 24.8874 2.20926 24.3906 2.16169 23.8794C2.15865 23.8476 2.15511 23.8151 2.15511 23.7832L2.15359 23.7348L2.15561 23.6785C2.16017 23.6022 2.15815 23.5259 2.16675 23.4501C2.17586 23.3737 2.18092 23.2974 2.19307 23.2221L2.23406 22.9952C2.29783 22.693 2.40259 22.3967 2.53468 22.1095C2.80139 21.5355 3.19209 21.0044 3.65263 20.5376C4.11217 20.0687 4.6471 19.6638 5.22202 19.3486C5.38549 19.2594 5.55301 19.1791 5.72255 19.1082C5.40826 18.8873 5.10715 18.6499 4.81917 18.3976C4.78931 18.4125 4.75845 18.426 4.72859 18.4414C4.04283 18.7946 3.4254 19.2524 2.87984 19.787C2.33781 20.3246 1.86917 20.9475 1.53262 21.6537C1.3651 22.0062 1.23402 22.3813 1.15254 22.7703C1.1323 22.8676 1.11712 22.9663 1.09991 23.0641C1.08473 23.1623 1.07714 23.2626 1.066 23.3618C1.05538 23.4606 1.05639 23.5612 1.05183 23.6615L1.0493 23.7368L1.05183 23.8206C1.05285 23.8765 1.05841 23.9323 1.06347 23.9882C1.1075 24.4355 1.27805 24.8609 1.52351 25.2195C1.772 25.5776 2.09489 25.8723 2.45876 26.0967C2.82365 26.3202 3.23359 26.4723 3.66377 26.5361C4.09394 26.5994 4.54488 26.5686 4.96291 26.4359C5.80302 26.1736 6.4893 25.5132 6.77776 24.7028C6.83998 24.5283 6.88355 24.3472 6.91038 24.1637C6.91995 24.1378 6.92756 24.1099 6.93213 24.0814C7.09507 23.7667 8.15837 22.7643 8.98377 22.6591V25.7576C8.66951 26.1651 8.50759 26.7047 8.50759 27.3705C8.50759 28.4327 9.38461 29.297 10.4631 29.297H12.53C13.608 29.297 14.485 28.4327 14.485 27.3705V23.1394C14.9056 23.3608 15.3458 23.5319 15.8044 23.6541C15.815 23.6815 15.8272 23.7079 15.8428 23.7338C16.0342 24.0426 16.2467 24.3797 16.473 24.6904C16.0281 25.0066 15.6414 25.5257 15.6414 26.6902C15.6414 27.753 16.518 28.6167 17.5959 28.6167H18.973C19.2544 28.6167 19.5601 28.5434 19.8268 28.3998C20.1694 28.9419 20.7772 29.297 21.4857 29.297H23.7632C25.1969 29.297 26.1985 28.3106 26.1985 26.8977C26.1985 24.6116 26.0685 23.6301 25.6443 22.7708C25.6585 22.6596 25.7622 22.3913 25.8463 22.1724C26.1945 21.2692 26.7578 19.8004 26.4394 17.6974Z" fill="#2D3448"/>
<path d="M30.8081 13.7854C30.8081 14.4332 30.2736 14.9598 29.6162 14.9598C28.9593 14.9598 28.4243 14.4332 28.4243 13.7854C28.4243 12.8632 28.7644 12.0967 29.3829 11.6264C29.8546 11.2673 30.4771 11.0848 31.1978 11.0848C31.3506 11.0848 31.508 11.0932 31.6694 11.1097C31.0849 11.8563 30.8081 12.7251 30.8081 13.7854ZM33.1092 10.6883C33.0678 10.5152 32.9331 10.3796 32.7585 10.3347C31.182 9.92875 29.7716 10.1178 28.7873 10.8669C27.9253 11.5232 27.4501 12.5595 27.4501 13.7854C27.4501 14.6237 27.9446 15.3483 28.6592 15.6974C28.5747 16.1552 28.5747 16.1552 28.6592 15.6974C28.9466 15.8371 29.268 15.9184 29.6091 15.9194C29.6116 15.9194 29.6142 15.9199 29.6162 15.9199C30.8106 15.9199 31.7823 14.9623 31.7823 13.7854C31.7823 12.6727 32.1446 11.8628 32.9569 11.1591C33.0926 11.0424 33.1508 10.8614 33.1092 10.6883Z" fill="#2D3448"/>
<path d="M28.6592 15.6975C28.5357 16.3638 27.9436 16.871 27.2325 16.871C26.777 16.871 26.3489 16.658 26.0756 16.3009C26.1905 16.5812 26.2826 16.8774 26.3483 17.1877C26.3848 17.3622 26.4142 17.5318 26.4395 17.6979C26.6915 17.7841 26.9593 17.8305 27.2325 17.8305C28.4036 17.8305 29.3834 17.0086 29.6091 15.9194C29.268 15.9184 28.9461 15.8371 28.6592 15.6975Z" fill="#2D3448"/>
</g>
<defs>
<clipPath id="clip0_1_11">
<rect width="163" height="30" fill="white"/>
</clipPath>
</defs>
</svg>
